<?xml version="1.0" encoding="UTF-8" standalone="no"?>
<!DOCTYPE svg PUBLIC "-//W3C//DTD SVG 1.1//EN" "http://www.w3.org/Graphics/SVG/1.1/DTD/svg11.dtd">
<svg width="100%" height="100%" viewBox="0 0 662 164" version="1.1" xmlns="http://www.w3.org/2000/svg" xmlns:xlink="http://www.w3.org/1999/xlink" xml:space="preserve" xmlns:serif="http://www.serif.com/" style="fill-rule:evenodd;clip-rule:evenodd;stroke-linejoin:round;stroke-miterlimit:2;">
    <g transform="matrix(0.60416,0,0,0.60416,-358.037,-397.463)">
        <g>
            <g transform="matrix(1.56569,0,0,1.56569,-378.105,181.153)">
                <g transform="matrix(159.626,0,0,159.626,614.082,430.097)">
                    <path d="M0.289,-0.546C0.203,-0.546 0.116,-0.523 0.057,-0.481L0.113,-0.372C0.152,-0.403 0.211,-0.422 0.268,-0.422C0.352,-0.422 0.392,-0.383 0.392,-0.316L0.268,-0.316C0.104,-0.316 0.037,-0.25 0.037,-0.155C0.037,-0.062 0.112,0.008 0.238,0.008C0.317,0.008 0.373,-0.018 0.402,-0.067L0.402,-0L0.548,-0L0.548,-0.307C0.548,-0.47 0.453,-0.546 0.289,-0.546ZM0.277,-0.097C0.222,-0.097 0.189,-0.123 0.189,-0.162C0.189,-0.198 0.212,-0.225 0.285,-0.225L0.392,-0.225L0.392,-0.17C0.374,-0.121 0.329,-0.097 0.277,-0.097Z" style="fill:rgb(69,40,119);fill-rule:nonzero;"/>
                </g>
                <g transform="matrix(159.626,0,0,159.626,712.571,430.097)">
                    <path d="M0.39,-0.546C0.318,-0.546 0.26,-0.523 0.221,-0.476L0.221,-0.538L0.072,-0.538L0.072,0.194L0.228,0.194L0.228,-0.057C0.268,-0.013 0.323,0.008 0.39,0.008C0.541,0.008 0.658,-0.1 0.658,-0.269C0.658,-0.438 0.541,-0.546 0.39,-0.546ZM0.363,-0.12C0.285,-0.12 0.226,-0.176 0.226,-0.269C0.226,-0.362 0.285,-0.418 0.363,-0.418C0.441,-0.418 0.5,-0.362 0.5,-0.269C0.5,-0.176 0.441,-0.12 0.363,-0.12Z" style="fill:rgb(69,40,119);fill-rule:nonzero;"/>
                </g>
                <g transform="matrix(159.626,0,0,159.626,822.712,430.097)">
                    <path d="M0.399,-0.546C0.33,-0.546 0.27,-0.524 0.228,-0.482L0.228,-0.742L0.072,-0.742L0.072,-0L0.228,-0L0.228,-0.266C0.228,-0.365 0.282,-0.411 0.357,-0.411C0.426,-0.411 0.466,-0.371 0.466,-0.284L0.466,-0L0.622,-0L0.622,-0.308C0.622,-0.472 0.526,-0.546 0.399,-0.546Z" style="fill:rgb(69,40,119);fill-rule:nonzero;"/>
                </g>
                <g transform="matrix(159.626,0,0,159.626,933.971,430.097)">
                    <path d="M0.599,-0.267C0.599,-0.44 0.477,-0.546 0.319,-0.546C0.155,-0.546 0.032,-0.43 0.032,-0.269C0.032,-0.109 0.153,0.008 0.339,0.008C0.436,0.008 0.511,-0.022 0.561,-0.079L0.478,-0.169C0.441,-0.134 0.4,-0.117 0.343,-0.117C0.261,-0.117 0.204,-0.158 0.189,-0.225L0.596,-0.225C0.597,-0.238 0.599,-0.255 0.599,-0.267ZM0.32,-0.428C0.39,-0.428 0.441,-0.384 0.452,-0.316L0.187,-0.316C0.198,-0.385 0.249,-0.428 0.32,-0.428Z" style="fill:rgb(69,40,119);fill-rule:nonzero;"/>
                </g>
                <g transform="matrix(159.626,0,0,159.626,1034.7,430.097)">
                    <rect x="0.072" y="-0.742" width="0.156" height="0.742" style="fill:rgb(69,40,119);fill-rule:nonzero;"/>
                </g>
                <g transform="matrix(159.626,0,0,159.626,1082.74,430.097)">
                    <path d="M0.599,-0.267C0.599,-0.44 0.477,-0.546 0.319,-0.546C0.155,-0.546 0.032,-0.43 0.032,-0.269C0.032,-0.109 0.153,0.008 0.339,0.008C0.436,0.008 0.511,-0.022 0.561,-0.079L0.478,-0.169C0.441,-0.134 0.4,-0.117 0.343,-0.117C0.261,-0.117 0.204,-0.158 0.189,-0.225L0.596,-0.225C0.597,-0.238 0.599,-0.255 0.599,-0.267ZM0.32,-0.428C0.39,-0.428 0.441,-0.384 0.452,-0.316L0.187,-0.316C0.198,-0.385 0.249,-0.428 0.32,-0.428Z" style="fill:rgb(69,40,119);fill-rule:nonzero;"/>
                </g>
                <g transform="matrix(159.626,0,0,159.626,1183.47,430.097)">
                    <path d="M0.15,-0.613C0.208,-0.613 0.247,-0.651 0.247,-0.703C0.247,-0.751 0.208,-0.787 0.15,-0.787C0.092,-0.787 0.053,-0.749 0.053,-0.7C0.053,-0.651 0.092,-0.613 0.15,-0.613ZM0.072,-0L0.228,-0L0.228,-0.538L0.072,-0.538L0.072,-0Z" style="fill:rgb(69,40,119);fill-rule:nonzero;"/>
                </g>
                <g transform="matrix(159.626,0,0,159.626,1231.51,430.097)">
                    <path d="M0.289,-0.546C0.203,-0.546 0.116,-0.523 0.057,-0.481L0.113,-0.372C0.152,-0.403 0.211,-0.422 0.268,-0.422C0.352,-0.422 0.392,-0.383 0.392,-0.316L0.268,-0.316C0.104,-0.316 0.037,-0.25 0.037,-0.155C0.037,-0.062 0.112,0.008 0.238,0.008C0.317,0.008 0.373,-0.018 0.402,-0.067L0.402,-0L0.548,-0L0.548,-0.307C0.548,-0.47 0.453,-0.546 0.289,-0.546ZM0.277,-0.097C0.222,-0.097 0.189,-0.123 0.189,-0.162C0.189,-0.198 0.212,-0.225 0.285,-0.225L0.392,-0.225L0.392,-0.17C0.374,-0.121 0.329,-0.097 0.277,-0.097Z" style="fill:rgb(69,40,119);fill-rule:nonzero;"/>
                </g>
            </g>
            <g transform="matrix(1.92943,0,0,2.60862,-75.6852,-1524.72)">
                <rect x="430.84" y="921.016" width="20.21" height="14.343" style="fill:rgb(69,40,119);"/>
            </g>
        </g>
        <g transform="matrix(0.474463,0,0,0.474463,496.809,453.363)">
            <g transform="matrix(130.981,0,0,130.981,654.507,973.344)">
                <path d="M0.761,-0.546C0.68,-0.546 0.61,-0.513 0.567,-0.458C0.529,-0.517 0.465,-0.546 0.39,-0.546C0.321,-0.546 0.261,-0.522 0.221,-0.476L0.221,-0.538L0.072,-0.538L0.072,-0L0.228,-0L0.228,-0.27C0.228,-0.366 0.277,-0.411 0.346,-0.411C0.411,-0.411 0.448,-0.371 0.448,-0.284L0.448,-0L0.604,-0L0.604,-0.27C0.604,-0.366 0.653,-0.411 0.723,-0.411C0.786,-0.411 0.825,-0.371 0.825,-0.284L0.825,-0L0.981,-0L0.981,-0.308C0.981,-0.472 0.889,-0.546 0.761,-0.546Z" style="fill-rule:nonzero;"/>
            </g>
            <g transform="matrix(130.981,0,0,130.981,791.906,973.344)">
                <path d="M0.289,-0.546C0.203,-0.546 0.116,-0.523 0.057,-0.481L0.113,-0.372C0.152,-0.403 0.211,-0.422 0.268,-0.422C0.352,-0.422 0.392,-0.383 0.392,-0.316L0.268,-0.316C0.104,-0.316 0.037,-0.25 0.037,-0.155C0.037,-0.062 0.112,0.008 0.238,0.008C0.317,0.008 0.373,-0.018 0.402,-0.067L0.402,-0L0.548,-0L0.548,-0.307C0.548,-0.47 0.453,-0.546 0.289,-0.546ZM0.277,-0.097C0.222,-0.097 0.189,-0.123 0.189,-0.162C0.189,-0.198 0.212,-0.225 0.285,-0.225L0.392,-0.225L0.392,-0.17C0.374,-0.121 0.329,-0.097 0.277,-0.097Z" style="fill-rule:nonzero;"/>
            </g>
            <g transform="matrix(130.981,0,0,130.981,872.721,973.344)">
                <path d="M0.399,-0.546C0.326,-0.546 0.263,-0.521 0.221,-0.475L0.221,-0.538L0.072,-0.538L0.072,-0L0.228,-0L0.228,-0.266C0.228,-0.365 0.282,-0.411 0.357,-0.411C0.426,-0.411 0.466,-0.371 0.466,-0.284L0.466,-0L0.622,-0L0.622,-0.308C0.622,-0.472 0.526,-0.546 0.399,-0.546Z" style="fill-rule:nonzero;"/>
            </g>
            <g transform="matrix(130.981,0,0,130.981,963.229,973.344)">
                <path d="M0.289,-0.546C0.203,-0.546 0.116,-0.523 0.057,-0.481L0.113,-0.372C0.152,-0.403 0.211,-0.422 0.268,-0.422C0.352,-0.422 0.392,-0.383 0.392,-0.316L0.268,-0.316C0.104,-0.316 0.037,-0.25 0.037,-0.155C0.037,-0.062 0.112,0.008 0.238,0.008C0.317,0.008 0.373,-0.018 0.402,-0.067L0.402,-0L0.548,-0L0.548,-0.307C0.548,-0.47 0.453,-0.546 0.289,-0.546ZM0.277,-0.097C0.222,-0.097 0.189,-0.123 0.189,-0.162C0.189,-0.198 0.212,-0.225 0.285,-0.225L0.392,-0.225L0.392,-0.17C0.374,-0.121 0.329,-0.097 0.277,-0.097Z" style="fill-rule:nonzero;"/>
            </g>
            <g transform="matrix(130.981,0,0,130.981,1044.83,973.344)">
                <path d="M0.479,-0.538L0.479,-0.469C0.438,-0.521 0.376,-0.546 0.301,-0.546C0.152,-0.546 0.032,-0.443 0.032,-0.286C0.032,-0.129 0.152,-0.026 0.301,-0.026C0.371,-0.026 0.43,-0.048 0.471,-0.093L0.471,-0.07C0.471,0.027 0.423,0.077 0.313,0.077C0.244,0.077 0.169,0.053 0.123,0.016L0.061,0.128C0.124,0.177 0.223,0.202 0.325,0.202C0.519,0.202 0.627,0.11 0.627,-0.09L0.627,-0.538L0.479,-0.538ZM0.332,-0.154C0.25,-0.154 0.19,-0.207 0.19,-0.286C0.19,-0.365 0.25,-0.418 0.332,-0.418C0.414,-0.418 0.473,-0.365 0.473,-0.286C0.473,-0.207 0.414,-0.154 0.332,-0.154Z" style="fill-rule:nonzero;"/>
            </g>
            <g transform="matrix(130.981,0,0,130.981,1136.52,973.344)">
                <path d="M0.599,-0.267C0.599,-0.44 0.477,-0.546 0.319,-0.546C0.155,-0.546 0.032,-0.43 0.032,-0.269C0.032,-0.109 0.153,0.008 0.339,0.008C0.436,0.008 0.511,-0.022 0.561,-0.079L0.478,-0.169C0.441,-0.134 0.4,-0.117 0.343,-0.117C0.261,-0.117 0.204,-0.158 0.189,-0.225L0.596,-0.225C0.597,-0.238 0.599,-0.255 0.599,-0.267ZM0.32,-0.428C0.39,-0.428 0.441,-0.384 0.452,-0.316L0.187,-0.316C0.198,-0.385 0.249,-0.428 0.32,-0.428Z" style="fill-rule:nonzero;"/>
            </g>
            <g transform="matrix(130.981,0,0,130.981,1219.17,973.344)">
                <path d="M0.761,-0.546C0.68,-0.546 0.61,-0.513 0.567,-0.458C0.529,-0.517 0.465,-0.546 0.39,-0.546C0.321,-0.546 0.261,-0.522 0.221,-0.476L0.221,-0.538L0.072,-0.538L0.072,-0L0.228,-0L0.228,-0.27C0.228,-0.366 0.277,-0.411 0.346,-0.411C0.411,-0.411 0.448,-0.371 0.448,-0.284L0.448,-0L0.604,-0L0.604,-0.27C0.604,-0.366 0.653,-0.411 0.723,-0.411C0.786,-0.411 0.825,-0.371 0.825,-0.284L0.825,-0L0.981,-0L0.981,-0.308C0.981,-0.472 0.889,-0.546 0.761,-0.546Z" style="fill-rule:nonzero;"/>
            </g>
            <g transform="matrix(130.981,0,0,130.981,1357.35,973.344)">
                <path d="M0.599,-0.267C0.599,-0.44 0.477,-0.546 0.319,-0.546C0.155,-0.546 0.032,-0.43 0.032,-0.269C0.032,-0.109 0.153,0.008 0.339,0.008C0.436,0.008 0.511,-0.022 0.561,-0.079L0.478,-0.169C0.441,-0.134 0.4,-0.117 0.343,-0.117C0.261,-0.117 0.204,-0.158 0.189,-0.225L0.596,-0.225C0.597,-0.238 0.599,-0.255 0.599,-0.267ZM0.32,-0.428C0.39,-0.428 0.441,-0.384 0.452,-0.316L0.187,-0.316C0.198,-0.385 0.249,-0.428 0.32,-0.428Z" style="fill-rule:nonzero;"/>
            </g>
            <g transform="matrix(130.981,0,0,130.981,1440,973.344)">
                <path d="M0.399,-0.546C0.326,-0.546 0.263,-0.521 0.221,-0.475L0.221,-0.538L0.072,-0.538L0.072,-0L0.228,-0L0.228,-0.266C0.228,-0.365 0.282,-0.411 0.357,-0.411C0.426,-0.411 0.466,-0.371 0.466,-0.284L0.466,-0L0.622,-0L0.622,-0.308C0.622,-0.472 0.526,-0.546 0.399,-0.546Z" style="fill-rule:nonzero;"/>
            </g>
            <g transform="matrix(130.981,0,0,130.981,1530.51,973.344)">
                <path d="M0.377,-0.136C0.36,-0.123 0.337,-0.116 0.314,-0.116C0.272,-0.116 0.247,-0.141 0.247,-0.187L0.247,-0.406L0.381,-0.406L0.381,-0.526L0.247,-0.526L0.247,-0.657L0.091,-0.657L0.091,-0.526L0.008,-0.526L0.008,-0.406L0.091,-0.406L0.091,-0.185C0.091,-0.057 0.165,0.008 0.292,0.008C0.34,0.008 0.387,-0.003 0.419,-0.026L0.377,-0.136Z" style="fill-rule:nonzero;"/>
            </g>
            <g transform="matrix(130.981,0,0,130.981,1624.55,973.344)">
                <path d="M0.761,-0.546C0.68,-0.546 0.61,-0.513 0.567,-0.458C0.529,-0.517 0.465,-0.546 0.39,-0.546C0.321,-0.546 0.261,-0.522 0.221,-0.476L0.221,-0.538L0.072,-0.538L0.072,-0L0.228,-0L0.228,-0.27C0.228,-0.366 0.277,-0.411 0.346,-0.411C0.411,-0.411 0.448,-0.371 0.448,-0.284L0.448,-0L0.604,-0L0.604,-0.27C0.604,-0.366 0.653,-0.411 0.723,-0.411C0.786,-0.411 0.825,-0.371 0.825,-0.284L0.825,-0L0.981,-0L0.981,-0.308C0.981,-0.472 0.889,-0.546 0.761,-0.546Z" style="fill-rule:nonzero;"/>
            </g>
            <g transform="matrix(130.981,0,0,130.981,1761.95,973.344)">
                <path d="M0.289,-0.546C0.203,-0.546 0.116,-0.523 0.057,-0.481L0.113,-0.372C0.152,-0.403 0.211,-0.422 0.268,-0.422C0.352,-0.422 0.392,-0.383 0.392,-0.316L0.268,-0.316C0.104,-0.316 0.037,-0.25 0.037,-0.155C0.037,-0.062 0.112,0.008 0.238,0.008C0.317,0.008 0.373,-0.018 0.402,-0.067L0.402,-0L0.548,-0L0.548,-0.307C0.548,-0.47 0.453,-0.546 0.289,-0.546ZM0.277,-0.097C0.222,-0.097 0.189,-0.123 0.189,-0.162C0.189,-0.198 0.212,-0.225 0.285,-0.225L0.392,-0.225L0.392,-0.17C0.374,-0.121 0.329,-0.097 0.277,-0.097Z" style="fill-rule:nonzero;"/>
            </g>
            <g transform="matrix(130.981,0,0,130.981,1843.55,973.344)">
                <path d="M0.464,-0.742L0.464,-0.481C0.425,-0.525 0.369,-0.546 0.303,-0.546C0.151,-0.546 0.034,-0.438 0.034,-0.269C0.034,-0.1 0.151,0.008 0.303,0.008C0.375,0.008 0.432,-0.015 0.471,-0.062L0.471,-0L0.62,-0L0.62,-0.742L0.464,-0.742ZM0.33,-0.12C0.252,-0.12 0.192,-0.176 0.192,-0.269C0.192,-0.362 0.252,-0.418 0.33,-0.418C0.407,-0.418 0.467,-0.362 0.467,-0.269C0.467,-0.176 0.407,-0.12 0.33,-0.12Z" style="fill-rule:nonzero;"/>
            </g>
            <g transform="matrix(130.981,0,0,130.981,1934.19,973.344)">
                <path d="M0.599,-0.267C0.599,-0.44 0.477,-0.546 0.319,-0.546C0.155,-0.546 0.032,-0.43 0.032,-0.269C0.032,-0.109 0.153,0.008 0.339,0.008C0.436,0.008 0.511,-0.022 0.561,-0.079L0.478,-0.169C0.441,-0.134 0.4,-0.117 0.343,-0.117C0.261,-0.117 0.204,-0.158 0.189,-0.225L0.596,-0.225C0.597,-0.238 0.599,-0.255 0.599,-0.267ZM0.32,-0.428C0.39,-0.428 0.441,-0.384 0.452,-0.316L0.187,-0.316C0.198,-0.385 0.249,-0.428 0.32,-0.428Z" style="fill-rule:nonzero;"/>
            </g>
            <g transform="matrix(130.981,0,0,130.981,2053.91,973.344)">
                <path d="M0.253,0.008C0.414,0.008 0.507,-0.063 0.507,-0.163C0.507,-0.375 0.182,-0.286 0.182,-0.378C0.182,-0.406 0.212,-0.428 0.282,-0.428C0.331,-0.428 0.384,-0.418 0.437,-0.388L0.489,-0.499C0.438,-0.529 0.356,-0.546 0.282,-0.546C0.125,-0.546 0.033,-0.474 0.033,-0.372C0.033,-0.157 0.358,-0.247 0.358,-0.159C0.358,-0.129 0.331,-0.11 0.259,-0.11C0.193,-0.11 0.12,-0.131 0.072,-0.162L0.02,-0.05C0.07,-0.017 0.162,0.008 0.253,0.008Z" style="fill-rule:nonzero;"/>
            </g>
            <g transform="matrix(130.981,0,0,130.981,2123.46,973.344)">
                <path d="M0.15,-0.613C0.208,-0.613 0.247,-0.651 0.247,-0.703C0.247,-0.751 0.208,-0.787 0.15,-0.787C0.092,-0.787 0.053,-0.749 0.053,-0.7C0.053,-0.651 0.092,-0.613 0.15,-0.613ZM0.072,-0L0.228,-0L0.228,-0.538L0.072,-0.538L0.072,-0Z" style="fill-rule:nonzero;"/>
            </g>
            <g transform="matrix(130.981,0,0,130.981,2162.88,973.344)">
                <path d="M0.761,-0.546C0.68,-0.546 0.61,-0.513 0.567,-0.458C0.529,-0.517 0.465,-0.546 0.39,-0.546C0.321,-0.546 0.261,-0.522 0.221,-0.476L0.221,-0.538L0.072,-0.538L0.072,-0L0.228,-0L0.228,-0.27C0.228,-0.366 0.277,-0.411 0.346,-0.411C0.411,-0.411 0.448,-0.371 0.448,-0.284L0.448,-0L0.604,-0L0.604,-0.27C0.604,-0.366 0.653,-0.411 0.723,-0.411C0.786,-0.411 0.825,-0.371 0.825,-0.284L0.825,-0L0.981,-0L0.981,-0.308C0.981,-0.472 0.889,-0.546 0.761,-0.546Z" style="fill-rule:nonzero;"/>
            </g>
            <g transform="matrix(130.981,0,0,130.981,2300.28,973.344)">
                <path d="M0.39,-0.546C0.318,-0.546 0.26,-0.523 0.221,-0.476L0.221,-0.538L0.072,-0.538L0.072,0.194L0.228,0.194L0.228,-0.057C0.268,-0.013 0.323,0.008 0.39,0.008C0.541,0.008 0.658,-0.1 0.658,-0.269C0.658,-0.438 0.541,-0.546 0.39,-0.546ZM0.363,-0.12C0.285,-0.12 0.226,-0.176 0.226,-0.269C0.226,-0.362 0.285,-0.418 0.363,-0.418C0.441,-0.418 0.5,-0.362 0.5,-0.269C0.5,-0.176 0.441,-0.12 0.363,-0.12Z" style="fill-rule:nonzero;"/>
            </g>
            <g transform="matrix(130.981,0,0,130.981,2390.66,973.344)">
                <rect x="0.072" y="-0.742" width="0.156" height="0.742" style="fill-rule:nonzero;"/>
            </g>
            <g transform="matrix(130.981,0,0,130.981,2430.09,973.344)">
                <path d="M0.599,-0.267C0.599,-0.44 0.477,-0.546 0.319,-0.546C0.155,-0.546 0.032,-0.43 0.032,-0.269C0.032,-0.109 0.153,0.008 0.339,0.008C0.436,0.008 0.511,-0.022 0.561,-0.079L0.478,-0.169C0.441,-0.134 0.4,-0.117 0.343,-0.117C0.261,-0.117 0.204,-0.158 0.189,-0.225L0.596,-0.225C0.597,-0.238 0.599,-0.255 0.599,-0.267ZM0.32,-0.428C0.39,-0.428 0.441,-0.384 0.452,-0.316L0.187,-0.316C0.198,-0.385 0.249,-0.428 0.32,-0.428Z" style="fill-rule:nonzero;"/>
            </g>
        </g>
    </g>
</svg>
