<?xml version="1.0" encoding="UTF-8" standalone="no"?>
<!DOCTYPE svg PUBLIC "-//W3C//DTD SVG 1.1//EN" "http://www.w3.org/Graphics/SVG/1.1/DTD/svg11.dtd">
<svg width="100%" height="100%" viewBox="0 0 666 153" version="1.1" xmlns="http://www.w3.org/2000/svg" xmlns:xlink="http://www.w3.org/1999/xlink" xml:space="preserve" xmlns:serif="http://www.serif.com/" style="fill-rule:evenodd;clip-rule:evenodd;stroke-linejoin:round;stroke-miterlimit:2;">
    <g transform="matrix(0.945937,0,0,0.945937,-584.354,-285.896)">
        <path d="M660.213,342.952C646.477,342.952 632.598,346.619 623.188,353.317L632.119,370.716C638.34,365.762 647.755,362.725 656.859,362.725C670.276,362.725 676.665,368.958 676.665,379.666L656.859,379.666C630.684,379.666 619.998,390.186 619.998,405.356C619.998,420.204 631.96,431.364 652.067,431.364C664.686,431.364 673.63,427.219 678.26,419.407L678.26,430.087L701.547,430.087L701.547,381.1C701.547,355.071 686.394,342.952 660.213,342.952ZM658.297,414.624C649.512,414.624 644.241,410.469 644.241,404.238C644.241,398.486 647.915,394.172 659.574,394.172L676.665,394.172L676.665,402.96C673.79,410.789 666.602,414.624 658.297,414.624Z" style="fill:none;fill-rule:nonzero;stroke:rgb(69,40,119);stroke-width:4.49px;"/>
        <path d="M774.827,342.952C763.328,342.952 754.066,346.62 747.839,354.115L747.839,344.229L724.074,344.229L724.074,461.055L748.955,461.055L748.955,420.999C755.343,428.015 764.127,431.364 774.827,431.364C798.933,431.364 817.594,414.142 817.594,387.168C817.594,360.174 798.933,342.952 774.827,342.952ZM770.515,410.952C758.058,410.952 748.636,402.009 748.636,387.158C748.636,372.307 758.058,363.364 770.515,363.364C782.971,363.364 792.394,372.307 792.394,387.158C792.394,402.009 782.971,410.952 770.515,410.952Z" style="fill:none;fill-rule:nonzero;stroke:rgb(69,40,119);stroke-width:4.49px;"/>
        <path d="M886.407,342.952C875.387,342.952 865.805,346.46 859.097,353.158L859.097,311.665L834.215,311.665L834.215,430.087L859.097,430.087L859.097,387.627C859.097,371.824 867.721,364.481 879.699,364.481C890.719,364.481 897.108,370.866 897.108,384.754L897.108,430.087L921.99,430.087L921.99,380.923C921.99,354.753 906.678,342.952 886.407,342.952Z" style="fill:none;fill-rule:nonzero;stroke:rgb(69,40,119);stroke-width:4.49px;"/>
        <path d="M1029.58,387.477C1029.58,359.854 1010.11,342.952 984.892,342.952C958.719,342.952 939.089,361.449 939.089,387.158C939.089,412.707 958.4,431.364 988.084,431.364C1003.56,431.364 1015.53,426.58 1023.51,417.491L1010.27,403.121C1004.36,408.714 997.819,411.431 988.722,411.431C975.636,411.431 966.539,404.879 964.145,394.172L1029.1,394.172C1029.26,392.099 1029.58,389.389 1029.58,387.477ZM985.052,361.768C996.223,361.768 1004.36,368.799 1006.12,379.666L963.826,379.666C965.582,368.639 973.721,361.768 985.052,361.768Z" style="fill:none;fill-rule:nonzero;stroke:rgb(69,40,119);stroke-width:4.49px;"/>
        <rect x="1046.2" y="311.665" width="24.882" height="118.422" style="fill:none;fill-rule:nonzero;stroke:rgb(69,40,119);stroke-width:4.49px;"/>
        <path d="M1178.35,387.477C1178.35,359.854 1158.88,342.952 1133.66,342.952C1107.49,342.952 1087.86,361.449 1087.86,387.158C1087.86,412.707 1107.17,431.364 1136.86,431.364C1152.34,431.364 1164.31,426.58 1172.28,417.491L1159.04,403.121C1153.13,408.714 1146.59,411.431 1137.49,411.431C1124.41,411.431 1115.31,404.879 1112.92,394.172L1177.87,394.172C1178.03,392.099 1178.35,389.389 1178.35,387.477ZM1133.82,361.768C1144.99,361.768 1153.13,368.799 1154.89,379.666L1112.6,379.666C1114.35,368.639 1122.49,361.768 1133.82,361.768Z" style="fill:none;fill-rule:nonzero;stroke:rgb(69,40,119);stroke-width:4.49px;"/>
        <path d="M1207.41,332.237C1216.66,332.237 1222.88,326.175 1222.88,317.881C1222.88,310.224 1216.66,304.482 1207.41,304.482C1198.16,304.482 1191.94,310.543 1191.94,318.359C1191.94,326.175 1198.16,332.237 1207.41,332.237ZM1194.97,430.087L1219.85,430.087L1219.85,344.229L1194.97,344.229L1194.97,430.087Z" style="fill:none;fill-rule:nonzero;stroke:rgb(69,40,119);stroke-width:4.49px;"/>
        <path d="M1277.64,342.952C1263.91,342.952 1250.03,346.619 1240.62,353.317L1249.55,370.716C1255.77,365.762 1265.19,362.725 1274.29,362.725C1287.71,362.725 1294.1,368.958 1294.1,379.666L1274.29,379.666C1248.12,379.666 1237.43,390.186 1237.43,405.356C1237.43,420.204 1249.39,431.364 1269.5,431.364C1282.12,431.364 1291.06,427.219 1295.69,419.407L1295.69,430.087L1318.98,430.087L1318.98,381.1C1318.98,355.071 1303.83,342.952 1277.64,342.952ZM1275.73,414.624C1266.94,414.624 1261.67,410.469 1261.67,404.238C1261.67,398.486 1265.35,394.172 1277.01,394.172L1294.1,394.172L1294.1,402.96C1291.22,410.789 1284.03,414.624 1275.73,414.624Z" style="fill:none;fill-rule:nonzero;stroke:rgb(69,40,119);stroke-width:4.49px;"/>
    </g>
</svg>
