<?xml version="1.0" encoding="utf-8"?>
<!-- Generator: Adobe Illustrator 25.2.3, SVG Export Plug-In . SVG Version: 6.00 Build 0)  -->
<svg version="1.1" id="Layer_1" xmlns:serif="http://www.serif.com/"
	 xmlns="http://www.w3.org/2000/svg" xmlns:xlink="http://www.w3.org/1999/xlink" x="0px" y="0px" viewBox="0 0 251 260"
	 style="enable-background:new 0 0 251 260;" xml:space="preserve">
<style type="text/css">
	.st0{
        fill-rule: evenodd;
        clip-rule: evenodd;
        fill:#FFFFFF;
    }
</style>
<g id="Artboard1" transform="matrix(0.29375,0,0,0.0979167,0,0)">
	<g>
		<g transform="matrix(3.40426,0,0,10.2128,-560.681,-8165.76)">
			<g transform="matrix(0.846523,0,0,0.846523,123.148,241.935)">
				<circle class="st0" cx="223.4" cy="789.2" r="38.7"/>
			</g>
			<g transform="matrix(0.866184,0,0,0.866184,120.323,227.55)">
				<path class="st0" d="M319.4,787.9c0-23.3,8.5-9.3,8.5,22.5c0,72.8-59.1,131.8-131.8,131.8S64.3,883.2,64.3,810.5
					c0-72.8,59.1-131.8,131.8-131.8c37.7,0,53.1,11.5,25.5,11.5c-54,0-97.8,43.8-97.8,97.8c0,54,43.8,97.8,97.8,97.8
					C275.6,885.7,319.4,841.9,319.4,787.9z"/>
			</g>
		</g>
	</g>
</g>
</svg>
